<?xml version="1.0" encoding="UTF-8"?>
<svg id="_圖層_2" data-name="圖層 2" xmlns="http://www.w3.org/2000/svg" xmlns:xlink="http://www.w3.org/1999/xlink" viewBox="0 0 1151.61 726.99">
  <defs>
    <style>
      .cls-1 {
        opacity: .6;
      }

      .cls-2 {
        fill: #ee8736;
      }

      .cls-2, .cls-3, .cls-4 {
        stroke: #000;
        stroke-miterlimit: 10;
        stroke-width: .5px;
      }

      .cls-3 {
        fill: #fff;
      }

      .cls-4 {
        fill: #1f263d;
      }
    </style>
  </defs>
  <g id="_圖層_2-2" data-name="圖層 2">
    <image class="cls-1" width="1108" height="1477" transform="translate(511.52 726.99) rotate(-180) scale(.33)" xlink:href="../W.背景二.png"/>
    <image class="cls-1" width="1108" height="1477" transform="translate(652.21) scale(.34)" xlink:href="../W.背景一.png"/>
    <path class="cls-4" d="M596.43,533.18c-4.8,1.39-23.44,9.34-27.64,11.69-16.26,9.06-28.44,22.57-39.59,37.25-10.89,14.33-24.86,46.44-31.87,63.94l-17.36,43.29c-3.12,7.79-7.12,19.26-11.32,25.2-.23.32-1.49-.42-1.75-.27l-1.31.77c-.9.53-3.14-1.96-3.24-3.23l-1.2-16.43-1.57-35.72-.62-30.21c.42-.39,1.91-1.24,1.63-1.5s-1.2-1.37-1.22-1.76l-.39-6.6-1.26-30.55c-.12-2.81-.81-10.51,1.49-12.29.32-.25-1.02-.07-1.76-.04l.21-15.66-.3-38.51c-.17-22.2-1.68-44.05-5.59-65.78-1.44-8-4.9-15.57-7.07-23.39-1.32-4.76-4.11-8.6-7.59-11.62-8.76-7.62-18.72-11.36-30.4-12.57-5.84-.61-12.78-.94-18.66.03-11.22,1.85-21.71,4.13-31.96,8.22l-30.16,12.02-23.14,9.87c-3.94,1.68-8.43,2.62-12.27,4.6l-36.95,19.03-12.01,5.58c-20.88,9.69-40.19,21.57-60.15,33.1l-13.97,8.07-12.32,6.9c-4.74,2.65-11.73,5.4-16.56,7.37-1.21,0-3.16-2.93-2.86-4.03.35-1.28,2.15-2.69,3.67-3.85l25.34-19.33c1.83-1.39,4.04-2.85,5.47-3.75,2.9-2.65,5.57-5.23,8.82-7.7,20.44-15.61,39.48-32.06,58.17-49.62l8.11-7.62,11.37-10.53,7.26-6.67,16.94-15.67,29.36-27.43c5.66-5.29,19.37-21.49,23.9-27.96,9.44-13.48,16.99-25.91,17.29-42.19.13-6.8.52-13.54-.36-20.61-1.98-16.04-7.31-30.89-12.18-46.2-.97-3.05-1.5-7.09-3.29-9.71l-14.57-21.36c-.64-.93.91-4.32,1.84-4.7s2.78.43,3.75,1.23l6.65,5.47c7.24,5.96,15.79,10.96,25.36,12.04,32.27,3.65,50.63-11.79,59.42-41.38l5.83-19.64c5.59-18.82,8.85-37.52,13.11-56.82l4.84-21.92,4.3-36.67c.92-7.87,1.36-15.97,1.23-23.67-.02-1.16.76-3.44,1.02-4.12l-1.11-4.96c-.43-1.93,4.39-5.46,5.32-3.7l12.35,23.61c1.91,3.66,4.95,6.96,6.75,10.74l20.69,43.26c3.02,6.31,6.75,12.04,10.46,18.06,3.23,5.24,7.24,10.06,11.34,14.9,5.38,6.35,12.63,11.98,20.21,15.99,28.45,15.06,61.51,8.38,92.08,3.28,36.03-6.01,94.48-34.94,128.29-52.41,1.56-.81,4.44.51,5.25,1.9,2.2,3.77-3.19,3.68-8.45,11.48-4.13,6.11-8.11,11.76-11.23,18.48l-1.89,4.06-9.9,21.21-7.91,17.79c-5.45,12.26-16.28,41.28-12.73,53.83,4.98,17.61,19.53,28.86,35.93,35.06,4.53,1.71,9.48,3.68,14.27,4.6,10.01,1.9,19.65,3.83,29.64,4.57l64.46,4.75,19.74,2.02,13.08,1.38,11.08.32c17.12.49,33.63.97,50.75-.47l17.04-1.44c7.13-.6,39.58-5.95,39.32,2.3-.17,5.43-7.42,3.5-12.35,4.36l-20.41,3.58c-5.42.95-13.86,3.02-18.43,4.25-.4.11-2.15-1.2-2.01-1.6-1.42,4.08-10.21,5.18-14.62,6.89-5.47,2.12-10.52,3.99-15.54,6.39l-25.51,12.23c-1.74.84-3.08,1.45-4.7,2.34l-29.4,15.96-14.91,8.45-13.26,7.98-9.13,5.67-15.4,10.02c-.22.15-2.07-1.07-2.1-.81l-.24,2.08c-.18,1.54-3.72,2.65-5.22,3.73-18.07,13-41.8,34.01-55.53,51.27-9,11.31-14.36,23.93-17.59,37.65-3.02,12.82-3.33,25.06-1.2,38.4,4.95,30.99,9.01,26.97,15.71,50.31,1.54,5.35,5.07,9.4,7.25,14.26l8.32,18.54c3.81,8.5,8.81,16.11,13.54,24.1,1.89,3.19,5.3,5.13,4.36,10.26l-16.34-12.95-18.13-13.9c-4.51-3.46-8.85-6.84-13.43-10.13l-16.49-11.84c-3.49-2.51-9-3.73-13.14-7.18-7.64-6.37-27.08-9.95-37.53-11.34-21.35-2.84-42.25-1.98-63.33,4.12Z"/>
    <g>
      <g>
        <path class="cls-4" d="M1034.84,361.3l9.8,4.08s1.44,0,8.42-6.51c6.99-6.51,10.43-16.37,7.08-17.71-3.35-1.34-9.38,4.88-13.4,9.57-4.02,4.69-7.08,10.34-7.08,10.34,0,0,1.91-4.88,2.01-13.5.1-8.61-3.64-14.07-7.08-13.69-3.45.38-3.64,9.57-3.06,15.99.57,6.41,3.32,11.42,3.32,11.42Z"/>
        <path class="cls-4" d="M1056.78,363.6c-5.84-.19-12.16,2.01-12.16,2.01l-1.75,8.52s.96,3.06,7.8,11.2c6.84,8.14,9.62,5.89,10.15,5.31.53-.57,2.87-2.35-2.06-8.9-4.93-6.56-13.56-11.25-13.56-11.25,0,0,3.3,1.34,8.76,1.63,5.46.29,10.67-2.25,11.1-4.36.43-2.11-2.44-3.97-8.28-4.16Z"/>
        <path class="cls-4" d="M1035.9,376.29s-3.13,3.57-1.6,17.61c1.53,14.04,7.79,4.98,8.36-.64.57-5.62.19-14.8-1.08-18.06l-5.68,1.08Z"/>
        <path class="cls-4" d="M1032.07,374.44s-22.84,11.29-14.74,17.17c8.1,5.87,18.12-15.44,18.12-15.44l-3.38-1.72Z"/>
        <path class="cls-4" d="M1031.49,373.57l-1.83-4.91s-4.53-1.44-15.12-1.89c-10.59-.45-9.25,6.64-1.79,8.68,7.47,2.04,18.74-1.88,18.74-1.88Z"/>
        <path class="cls-4" d="M1029.86,366.71l3.45-4.66s-1.6-5.81-9.95-15.7c-8.36-9.89-13.02,1.6-6.57,9.83,6.45,8.23,13.08,10.53,13.08,10.53Z"/>
      </g>
      <g>
        <path class="cls-2" d="M1037.41,361.02l7.56,7.45s1.33.54,10.25-2.89c8.91-3.42,15.8-11.28,13.19-13.77-2.61-2.5-10.53,1.02-16.01,3.87s-10.44,6.94-10.44,6.94c0,0,3.6-3.81,6.91-11.77,3.31-7.95,1.89-14.41-1.45-15.34-3.34-.93-6.95,7.52-8.82,13.68-1.87,6.16-1.19,11.83-1.19,11.83Z"/>
        <path class="cls-2" d="M1056.9,371.37c-5.34-2.36-12.03-2.68-12.03-2.68l-4.81,7.24s-.26,3.2,3.05,13.3c3.3,10.11,6.72,9.06,7.42,8.72.7-.34,3.54-1.1,1.42-9.03-2.12-7.92-8.37-15.5-8.37-15.5,0,0,2.56,2.48,7.51,4.78,4.95,2.31,10.74,1.91,11.93.11,1.19-1.79-.78-4.6-6.12-6.96Z"/>
        <path class="cls-2" d="M1032.79,375.32s-4.24,2.14-8.07,15.74c-3.83,13.59,5.36,7.53,7.99,2.53,2.63-4.99,5.71-13.66,5.75-17.15l-5.67-1.12Z"/>
        <path class="cls-2" d="M1029.93,372.17s-25.41,1.93-20.09,10.41c5.32,8.48,22.58-7.54,22.58-7.54l-2.49-2.86Z"/>
        <path class="cls-2" d="M1029.72,371.16l.14-5.23s-3.66-3.03-13.32-7.41c-9.66-4.38-11.06,2.69-4.9,7.38,6.16,4.69,18.08,5.26,18.08,5.26Z"/>
        <path class="cls-2" d="M1030.77,364.19l4.94-3.03s.69-5.98-3.36-18.28c-4.05-12.3-12.67-3.39-9.77,6.66,2.9,10.04,8.19,14.66,8.19,14.66Z"/>
      </g>
      <circle class="cls-4" cx="1037.42" cy="368.67" r="8.51"/>
    </g>
    <g>
      <g>
        <path class="cls-4" d="M929.36,505.69l22.61,9.42s3.31,0,19.44-15.02c16.13-15.02,24.08-37.77,16.35-40.87-7.73-3.09-21.65,11.27-30.93,22.09s-16.35,23.86-16.35,23.86c0,0,4.42-11.27,4.64-31.15.22-19.88-8.39-32.47-16.35-31.59-7.95.88-8.39,22.09-7.07,36.89,1.33,14.8,7.66,26.36,7.66,26.36Z"/>
        <path class="cls-4" d="M980,511.01c-13.47-.44-28.05,4.64-28.05,4.64l-4.05,19.66s2.21,7.07,18,25.84c15.79,18.78,22.2,13.59,23.42,12.26,1.21-1.33,6.63-5.41-4.75-20.54-11.38-15.13-31.29-25.96-31.29-25.96,0,0,7.62,3.09,20.21,3.76,12.59.66,24.63-5.19,25.62-10.05.99-4.86-5.63-9.17-19.11-9.61Z"/>
        <path class="cls-4" d="M931.81,540.28s-7.22,8.25-3.68,40.65c3.53,32.4,17.97,11.49,19.29-1.47,1.33-12.96.44-34.17-2.5-41.68l-13.11,2.5Z"/>
        <path class="cls-4" d="M922.97,536.01s-52.72,26.07-34.02,39.61c18.7,13.55,41.82-35.64,41.82-35.64l-7.81-3.98Z"/>
        <path class="cls-4" d="M921.65,534.02l-4.22-11.32s-10.46-3.33-34.9-4.36c-24.45-1.03-21.35,15.32-4.12,20.03,17.23,4.71,43.24-4.34,43.24-4.34Z"/>
        <path class="cls-4" d="M917.87,518.19l7.95-10.75s-3.68-13.4-22.97-36.23c-19.29-22.83-30.04,3.68-15.17,22.68,14.87,19,30.19,24.3,30.19,24.3Z"/>
      </g>
      <g>
        <path class="cls-2" d="M935.31,505.06l17.44,17.2s3.07,1.24,23.65-6.66c20.57-7.9,36.46-26.03,30.44-31.79-6.01-5.76-24.29,2.35-36.94,8.92-12.65,6.57-24.08,16.01-24.08,16.01,0,0,8.31-8.8,15.95-27.15,7.64-18.36,4.36-33.25-3.35-35.41-7.71-2.15-16.05,17.35-20.35,31.57-4.31,14.22-2.76,27.31-2.76,27.31Z"/>
        <path class="cls-2" d="M980.28,528.93c-12.33-5.45-27.75-6.19-27.75-6.19l-11.11,16.72s-.6,7.38,7.03,30.7c7.63,23.32,15.51,20.9,17.13,20.13,1.62-.77,8.17-2.54,3.28-20.83-4.89-18.29-19.32-35.78-19.32-35.78,0,0,5.91,5.72,17.34,11.04,11.43,5.32,24.78,4.4,27.52.26,2.74-4.14-1.8-10.61-14.13-16.06Z"/>
        <path class="cls-2" d="M924.64,538.05s-9.78,4.95-18.62,36.32c-8.84,31.37,12.37,17.37,18.44,5.85,6.08-11.52,13.19-31.52,13.27-39.59l-13.09-2.58Z"/>
        <path class="cls-2" d="M918.04,530.79s-58.64,4.46-46.37,24.02c12.28,19.56,52.12-17.41,52.12-17.41l-5.75-6.61Z"/>
        <path class="cls-2" d="M917.56,528.45l.32-12.08s-8.45-7-30.74-17.1c-22.29-10.1-25.53,6.22-11.31,17.03,14.22,10.81,41.73,12.14,41.73,12.14Z"/>
        <path class="cls-2" d="M919.98,512.35l11.4-7s1.6-13.81-7.76-42.19c-9.35-28.38-29.24-7.82-22.55,15.36,6.69,23.18,18.91,33.83,18.91,33.83Z"/>
      </g>
      <circle class="cls-4" cx="935.32" cy="522.7" r="19.64"/>
    </g>
    <g>
      <g>
        <path class="cls-4" d="M400.77,218.54l18.04,7.52s2.64,0,15.52-11.99c12.87-11.99,19.22-30.15,13.05-32.62-6.17-2.47-17.28,8.99-24.68,17.63s-13.05,19.04-13.05,19.04c0,0,3.53-8.99,3.7-24.86.18-15.87-6.7-25.92-13.05-25.21-6.35.71-6.7,17.63-5.64,29.44,1.06,11.81,6.11,21.04,6.11,21.04Z"/>
        <path class="cls-4" d="M441.19,222.79c-10.76-.35-22.39,3.7-22.39,3.7l-3.23,15.69s1.76,5.64,14.37,20.63c12.61,14.99,17.72,10.84,18.69,9.79.97-1.06,5.29-4.32-3.79-16.4-9.08-12.08-24.98-20.72-24.98-20.72,0,0,6.08,2.47,16.13,3,10.05.53,19.66-4.14,20.45-8.02.79-3.88-4.5-7.32-15.25-7.67Z"/>
        <path class="cls-4" d="M402.73,246.15s-5.76,6.58-2.94,32.44c2.82,25.86,14.34,9.17,15.4-1.18,1.06-10.34.35-27.27-2-33.27l-10.46,2Z"/>
        <path class="cls-4" d="M395.68,242.74s-42.08,20.81-27.15,31.62c14.93,10.81,33.38-28.45,33.38-28.45l-6.23-3.17Z"/>
        <path class="cls-4" d="M394.62,241.16l-3.36-9.04s-8.35-2.66-27.86-3.48c-19.51-.82-17.04,12.22-3.29,15.99,13.75,3.76,34.51-3.47,34.51-3.47Z"/>
        <path class="cls-4" d="M391.61,228.52l6.35-8.58s-2.94-10.7-18.34-28.92c-15.4-18.22-23.98,2.94-12.11,18.1,11.87,15.16,24.1,19.39,24.1,19.39Z"/>
      </g>
      <g>
        <path class="cls-2" d="M405.52,218.04l13.92,13.73s2.45.99,18.87-5.32c16.42-6.31,29.1-20.77,24.3-25.37-4.8-4.6-19.39,1.88-29.49,7.12s-19.22,12.78-19.22,12.78c0,0,6.63-7.02,12.73-21.67,6.1-14.65,3.48-26.54-2.67-28.26-6.15-1.72-12.81,13.85-16.25,25.2-3.44,11.35-2.2,21.8-2.2,21.8Z"/>
        <path class="cls-2" d="M441.42,237.09c-9.84-4.35-22.15-4.94-22.15-4.94l-8.87,13.34s-.48,5.89,5.61,24.51c6.09,18.61,12.38,16.68,13.67,16.07,1.3-.62,6.52-2.03,2.62-16.63-3.9-14.6-15.42-28.56-15.42-28.56,0,0,4.72,4.56,13.84,8.81,9.12,4.25,19.78,3.51,21.97.21,2.19-3.3-1.43-8.47-11.28-12.82Z"/>
        <path class="cls-2" d="M397.01,244.37s-7.8,3.95-14.86,28.99c-7.06,25.04,9.87,13.87,14.72,4.67,4.85-9.2,10.53-25.16,10.59-31.6l-10.45-2.06Z"/>
        <path class="cls-2" d="M391.74,238.57s-46.81,3.56-37.01,19.17c9.8,15.61,41.6-13.9,41.6-13.9l-4.59-5.27Z"/>
        <path class="cls-2" d="M391.36,236.71l.26-9.64s-6.75-5.59-24.53-13.65c-17.79-8.06-20.38,4.96-9.03,13.59,11.35,8.63,33.31,9.69,33.31,9.69Z"/>
        <path class="cls-2" d="M393.29,223.86l9.1-5.58s1.28-11.02-6.19-33.68c-7.47-22.66-23.34-6.24-18,12.26,5.34,18.5,15.09,27,15.09,27Z"/>
      </g>
      <circle class="cls-4" cx="405.53" cy="232.12" r="15.68"/>
    </g>
    <g>
      <g>
        <path class="cls-4" d="M861.9,448.59l9.8,4.08s1.44,0,8.42-6.51c6.99-6.51,10.43-16.37,7.08-17.71-3.35-1.34-9.38,4.88-13.4,9.57-4.02,4.69-7.08,10.34-7.08,10.34,0,0,1.91-4.88,2.01-13.5.1-8.61-3.64-14.07-7.08-13.69-3.45.38-3.64,9.57-3.06,15.99.57,6.41,3.32,11.42,3.32,11.42Z"/>
        <path class="cls-4" d="M883.85,450.9c-5.84-.19-12.16,2.01-12.16,2.01l-1.75,8.52s.96,3.06,7.8,11.2c6.84,8.14,9.62,5.89,10.15,5.31.53-.57,2.87-2.35-2.06-8.9-4.93-6.56-13.56-11.25-13.56-11.25,0,0,3.3,1.34,8.76,1.63,5.46.29,10.67-2.25,11.1-4.36.43-2.11-2.44-3.97-8.28-4.16Z"/>
        <path class="cls-4" d="M862.97,463.58s-3.13,3.57-1.6,17.61c1.53,14.04,7.79,4.98,8.36-.64.57-5.62.19-14.8-1.08-18.06l-5.68,1.08Z"/>
        <path class="cls-4" d="M859.14,461.73s-22.84,11.29-14.74,17.17c8.1,5.87,18.12-15.44,18.12-15.44l-3.38-1.72Z"/>
        <path class="cls-4" d="M858.56,460.87l-1.83-4.91s-4.53-1.44-15.12-1.89c-10.59-.45-9.25,6.64-1.79,8.68,7.47,2.04,18.74-1.88,18.74-1.88Z"/>
        <path class="cls-4" d="M856.93,454.01l3.45-4.66s-1.6-5.81-9.95-15.7c-8.36-9.89-13.02,1.6-6.57,9.83,6.45,8.23,13.08,10.53,13.08,10.53Z"/>
      </g>
      <g>
        <path class="cls-2" d="M864.48,448.32l7.56,7.45s1.33.54,10.25-2.89c8.91-3.42,15.8-11.28,13.19-13.77-2.61-2.5-10.53,1.02-16.01,3.87s-10.44,6.94-10.44,6.94c0,0,3.6-3.81,6.91-11.77,3.31-7.95,1.89-14.41-1.45-15.34-3.34-.93-6.95,7.52-8.82,13.68-1.87,6.16-1.19,11.83-1.19,11.83Z"/>
        <path class="cls-2" d="M883.97,458.66c-5.34-2.36-12.03-2.68-12.03-2.68l-4.81,7.24s-.26,3.2,3.05,13.3c3.3,10.11,6.72,9.06,7.42,8.72.7-.34,3.54-1.1,1.42-9.03-2.12-7.92-8.37-15.5-8.37-15.5,0,0,2.56,2.48,7.51,4.78,4.95,2.31,10.74,1.91,11.93.11,1.19-1.79-.78-4.6-6.12-6.96Z"/>
        <path class="cls-2" d="M859.86,462.61s-4.24,2.14-8.07,15.74c-3.83,13.59,5.36,7.53,7.99,2.53,2.63-4.99,5.71-13.66,5.75-17.15l-5.67-1.12Z"/>
        <path class="cls-2" d="M857,459.46s-25.41,1.93-20.09,10.41c5.32,8.48,22.58-7.54,22.58-7.54l-2.49-2.86Z"/>
        <path class="cls-2" d="M856.79,458.45l.14-5.23s-3.66-3.03-13.32-7.41c-9.66-4.38-11.06,2.69-4.9,7.38,6.16,4.69,18.08,5.26,18.08,5.26Z"/>
        <path class="cls-2" d="M857.84,451.48l4.94-3.03s.69-5.98-3.36-18.28c-4.05-12.3-12.67-3.39-9.77,6.66,2.9,10.04,8.19,14.66,8.19,14.66Z"/>
      </g>
      <circle class="cls-4" cx="864.49" cy="455.96" r="8.51"/>
    </g>
    <g>
      <g>
        <path class="cls-2" d="M191.94,314.29l9.8,4.08s1.44,0,8.42-6.51c6.99-6.51,10.43-16.37,7.08-17.71-3.35-1.34-9.38,4.88-13.4,9.57s-7.08,10.34-7.08,10.34c0,0,1.91-4.88,2.01-13.5.1-8.61-3.64-14.07-7.08-13.69-3.45.38-3.64,9.57-3.06,15.99.57,6.41,3.32,11.42,3.32,11.42Z"/>
        <path class="cls-2" d="M213.89,316.59c-5.84-.19-12.16,2.01-12.16,2.01l-1.75,8.52s.96,3.06,7.8,11.2c6.84,8.14,9.62,5.89,10.15,5.31.53-.57,2.87-2.35-2.06-8.9-4.93-6.56-13.56-11.25-13.56-11.25,0,0,3.3,1.34,8.76,1.63,5.46.29,10.67-2.25,11.1-4.36.43-2.11-2.44-3.97-8.28-4.16Z"/>
        <path class="cls-2" d="M193,329.28s-3.13,3.57-1.6,17.61c1.53,14.04,7.79,4.98,8.36-.64.57-5.62.19-14.8-1.08-18.06l-5.68,1.08Z"/>
        <path class="cls-2" d="M189.17,327.43s-22.84,11.29-14.74,17.17c8.1,5.87,18.12-15.44,18.12-15.44l-3.38-1.72Z"/>
        <path class="cls-2" d="M188.6,326.56l-1.83-4.91s-4.53-1.44-15.12-1.89c-10.59-.45-9.25,6.64-1.79,8.68,7.47,2.04,18.74-1.88,18.74-1.88Z"/>
        <path class="cls-2" d="M186.96,319.7l3.45-4.66s-1.6-5.81-9.95-15.7c-8.36-9.89-13.02,1.6-6.57,9.83,6.45,8.23,13.08,10.53,13.08,10.53Z"/>
      </g>
      <g>
        <path class="cls-2" d="M194.52,314.01l7.56,7.45s1.33.54,10.25-2.89c8.91-3.42,15.8-11.28,13.19-13.77-2.61-2.5-10.53,1.02-16.01,3.87s-10.44,6.94-10.44,6.94c0,0,3.6-3.81,6.91-11.77,3.31-7.95,1.89-14.41-1.45-15.34-3.34-.93-6.95,7.52-8.82,13.68-1.87,6.16-1.19,11.83-1.19,11.83Z"/>
        <path class="cls-2" d="M214.01,324.36c-5.34-2.36-12.03-2.68-12.03-2.68l-4.81,7.24s-.26,3.2,3.05,13.3c3.3,10.11,6.72,9.06,7.42,8.72.7-.34,3.54-1.1,1.42-9.03-2.12-7.92-8.37-15.5-8.37-15.5,0,0,2.56,2.48,7.51,4.78,4.95,2.31,10.74,1.91,11.93.11,1.19-1.79-.78-4.6-6.12-6.96Z"/>
        <path class="cls-2" d="M189.9,328.31s-4.24,2.14-8.07,15.74c-3.83,13.59,5.36,7.53,7.99,2.53,2.63-4.99,5.71-13.66,5.75-17.15l-5.67-1.12Z"/>
        <path class="cls-2" d="M187.04,325.16s-25.41,1.93-20.09,10.41c5.32,8.48,22.58-7.54,22.58-7.54l-2.49-2.86Z"/>
        <path class="cls-2" d="M186.83,324.15l.14-5.23s-3.66-3.03-13.32-7.41c-9.66-4.38-11.06,2.69-4.9,7.38,6.16,4.69,18.08,5.26,18.08,5.26Z"/>
        <path class="cls-2" d="M187.88,317.18l4.94-3.03s.69-5.98-3.36-18.28c-4.05-12.3-12.67-3.39-9.77,6.66,2.9,10.04,8.19,14.66,8.19,14.66Z"/>
      </g>
      <circle class="cls-4" cx="194.53" cy="321.66" r="8.51"/>
    </g>
    <g>
      <g>
        <path class="cls-2" d="M183.42,525.36l9.8,4.08s1.44,0,8.42-6.51c6.99-6.51,10.43-16.37,7.08-17.71-3.35-1.34-9.38,4.88-13.4,9.57s-7.08,10.34-7.08,10.34c0,0,1.91-4.88,2.01-13.5.1-8.61-3.64-14.07-7.08-13.69-3.45.38-3.64,9.57-3.06,15.99.57,6.41,3.32,11.42,3.32,11.42Z"/>
        <path class="cls-2" d="M205.36,527.67c-5.84-.19-12.16,2.01-12.16,2.01l-1.75,8.52s.96,3.06,7.8,11.2c6.84,8.14,9.62,5.89,10.15,5.31.53-.57,2.87-2.35-2.06-8.9-4.93-6.56-13.56-11.25-13.56-11.25,0,0,3.3,1.34,8.76,1.63,5.46.29,10.67-2.25,11.1-4.36.43-2.11-2.44-3.97-8.28-4.16Z"/>
        <path class="cls-2" d="M184.48,540.35s-3.13,3.57-1.6,17.61c1.53,14.04,7.79,4.98,8.36-.64.57-5.62.19-14.8-1.08-18.06l-5.68,1.08Z"/>
        <path class="cls-2" d="M180.65,538.5s-22.84,11.29-14.74,17.17c8.1,5.87,18.12-15.44,18.12-15.44l-3.38-1.72Z"/>
        <path class="cls-2" d="M180.07,537.64l-1.83-4.91s-4.53-1.44-15.12-1.89c-10.59-.45-9.25,6.64-1.79,8.68,7.47,2.04,18.74-1.88,18.74-1.88Z"/>
        <path class="cls-2" d="M178.44,530.78l3.45-4.66s-1.6-5.81-9.95-15.7c-8.36-9.89-13.02,1.6-6.57,9.83,6.45,8.23,13.08,10.53,13.08,10.53Z"/>
      </g>
      <g>
        <path class="cls-2" d="M185.99,525.09l7.56,7.45s1.33.54,10.25-2.89c8.91-3.42,15.8-11.28,13.19-13.77-2.61-2.5-10.53,1.02-16.01,3.87s-10.44,6.94-10.44,6.94c0,0,3.6-3.81,6.91-11.77,3.31-7.95,1.89-14.41-1.45-15.34-3.34-.93-6.95,7.52-8.82,13.68-1.87,6.16-1.19,11.83-1.19,11.83Z"/>
        <path class="cls-2" d="M205.48,535.43c-5.34-2.36-12.03-2.68-12.03-2.68l-4.81,7.24s-.26,3.2,3.05,13.3c3.3,10.11,6.72,9.06,7.42,8.72.7-.34,3.54-1.1,1.42-9.03-2.12-7.92-8.37-15.5-8.37-15.5,0,0,2.56,2.48,7.51,4.78,4.95,2.31,10.74,1.91,11.93.11,1.19-1.79-.78-4.6-6.12-6.96Z"/>
        <path class="cls-2" d="M181.37,539.39s-4.24,2.14-8.07,15.74c-3.83,13.59,5.36,7.53,7.99,2.53,2.63-4.99,5.71-13.66,5.75-17.15l-5.67-1.12Z"/>
        <path class="cls-2" d="M178.51,536.24s-25.41,1.93-20.09,10.41c5.32,8.48,22.58-7.54,22.58-7.54l-2.49-2.86Z"/>
        <path class="cls-2" d="M178.3,535.22l.14-5.23s-3.66-3.03-13.32-7.41c-9.66-4.38-11.06,2.69-4.9,7.38,6.16,4.69,18.08,5.26,18.08,5.26Z"/>
        <path class="cls-2" d="M179.35,528.25l4.94-3.03s.69-5.98-3.36-18.28c-4.05-12.3-12.67-3.39-9.77,6.66,2.9,10.04,8.19,14.66,8.19,14.66Z"/>
      </g>
      <circle class="cls-4" cx="186" cy="532.73" r="8.51"/>
    </g>
    <g>
      <path class="cls-3" d="M700.33,497.3s-15.03-19.55-1.2-23.01,12.5,21.94,12.5,21.94c0,0,14.1-20.21,21.41-2.39,7.31,17.82-19.81,10.51-19.81,10.51,0,0,24.73,6.78,10.9,19.42-13.83,12.63-17.15-14.36-17.15-14.36,0,0,1.2,27.26-14.36,20.48-15.56-6.78,9.31-25.13,9.31-25.13,0,0-21.81,11.04-21.01-6.92.8-17.95,19.42-.53,19.42-.53Z"/>
      <circle class="cls-3" cx="706.18" cy="502.42" r="8.98"/>
    </g>
    <g>
      <path class="cls-3" d="M439.9,175.6s-15.03-19.55-1.2-23.01c13.83-3.46,12.5,21.94,12.5,21.94,0,0,14.1-20.21,21.41-2.39,7.31,17.82-19.81,10.51-19.81,10.51,0,0,24.73,6.78,10.9,19.42s-17.15-14.36-17.15-14.36c0,0,1.2,27.26-14.36,20.48-15.56-6.78,9.31-25.13,9.31-25.13,0,0-21.81,11.04-21.01-6.92.8-17.95,19.42-.53,19.42-.53Z"/>
      <circle class="cls-3" cx="445.75" cy="180.72" r="8.98"/>
    </g>
    <g>
      <path class="cls-3" d="M323.22,415.6s-15.03-19.55-1.2-23.01c13.83-3.46,12.5,21.94,12.5,21.94,0,0,14.1-20.21,21.41-2.39,7.31,17.82-19.81,10.51-19.81,10.51,0,0,24.73,6.78,10.9,19.42s-17.15-14.36-17.15-14.36c0,0,1.2,27.26-14.36,20.48-15.56-6.78,9.31-25.13,9.31-25.13,0,0-21.81,11.04-21.01-6.92s19.42-.53,19.42-.53Z"/>
      <circle class="cls-3" cx="329.07" cy="420.72" r="8.98"/>
    </g>
    <g>
      <g>
        <path class="cls-4" d="M754.5,185.13l9.8,4.08s1.44,0,8.42-6.51c6.99-6.51,10.43-16.37,7.08-17.71-3.35-1.34-9.38,4.88-13.4,9.57-4.02,4.69-7.08,10.34-7.08,10.34,0,0,1.91-4.88,2.01-13.5.1-8.61-3.64-14.07-7.08-13.69-3.45.38-3.64,9.57-3.06,15.99.57,6.41,3.32,11.42,3.32,11.42Z"/>
        <path class="cls-4" d="M776.44,187.43c-5.84-.19-12.16,2.01-12.16,2.01l-1.75,8.52s.96,3.06,7.8,11.2,9.62,5.89,10.15,5.31c.53-.57,2.87-2.35-2.06-8.9-4.93-6.56-13.56-11.25-13.56-11.25,0,0,3.3,1.34,8.76,1.63,5.46.29,10.67-2.25,11.1-4.36.43-2.11-2.44-3.97-8.28-4.16Z"/>
        <path class="cls-4" d="M755.56,200.12s-3.13,3.57-1.6,17.61,7.79,4.98,8.36-.64c.57-5.62.19-14.8-1.08-18.06l-5.68,1.08Z"/>
        <path class="cls-4" d="M751.73,198.27s-22.84,11.29-14.74,17.17c8.1,5.87,18.12-15.44,18.12-15.44l-3.38-1.72Z"/>
        <path class="cls-4" d="M751.15,197.4l-1.83-4.91s-4.53-1.44-15.12-1.89c-10.59-.45-9.25,6.64-1.79,8.68,7.47,2.04,18.74-1.88,18.74-1.88Z"/>
        <path class="cls-4" d="M749.52,190.54l3.45-4.66s-1.6-5.81-9.95-15.7c-8.36-9.89-13.02,1.6-6.57,9.83,6.45,8.23,13.08,10.53,13.08,10.53Z"/>
      </g>
      <g>
        <path class="cls-2" d="M757.07,184.85l7.56,7.45s1.33.54,10.25-2.89c8.91-3.42,15.8-11.28,13.19-13.77-2.61-2.5-10.53,1.02-16.01,3.87s-10.44,6.94-10.44,6.94c0,0,3.6-3.81,6.91-11.77,3.31-7.95,1.89-14.41-1.45-15.34-3.34-.93-6.95,7.52-8.82,13.68-1.87,6.16-1.19,11.83-1.19,11.83Z"/>
        <path class="cls-2" d="M776.56,195.2c-5.34-2.36-12.03-2.68-12.03-2.68l-4.81,7.24s-.26,3.2,3.05,13.3c3.3,10.11,6.72,9.06,7.42,8.72.7-.34,3.54-1.1,1.42-9.03-2.12-7.92-8.37-15.5-8.37-15.5,0,0,2.56,2.48,7.51,4.78,4.95,2.31,10.74,1.91,11.93.11,1.19-1.79-.78-4.6-6.12-6.96Z"/>
        <path class="cls-2" d="M752.45,199.15s-4.24,2.14-8.07,15.74c-3.83,13.59,5.36,7.53,7.99,2.53,2.63-4.99,5.71-13.66,5.75-17.15l-5.67-1.12Z"/>
        <path class="cls-2" d="M749.59,196s-25.41,1.93-20.09,10.41c5.32,8.48,22.58-7.54,22.58-7.54l-2.49-2.86Z"/>
        <path class="cls-2" d="M749.38,194.99l.14-5.23s-3.66-3.03-13.32-7.41c-9.66-4.38-11.06,2.69-4.9,7.38,6.16,4.69,18.08,5.26,18.08,5.26Z"/>
        <path class="cls-2" d="M750.43,188.01l4.94-3.03s.69-5.98-3.36-18.28c-4.05-12.3-12.67-3.39-9.77,6.66,2.9,10.04,8.19,14.66,8.19,14.66Z"/>
      </g>
      <circle class="cls-4" cx="757.08" cy="192.5" r="8.51"/>
    </g>
    <g>
      <g>
        <path class="cls-4" d="M80.45,278.06l9.8,4.08s1.44,0,8.42-6.51c6.99-6.51,10.43-16.37,7.08-17.71-3.35-1.34-9.38,4.88-13.4,9.57-4.02,4.69-7.08,10.34-7.08,10.34,0,0,1.91-4.88,2.01-13.5.1-8.61-3.64-14.07-7.08-13.69-3.45.38-3.64,9.57-3.06,15.99.57,6.41,3.32,11.42,3.32,11.42Z"/>
        <path class="cls-4" d="M102.4,280.37c-5.84-.19-12.16,2.01-12.16,2.01l-1.75,8.52s.96,3.06,7.8,11.2c6.84,8.14,9.62,5.89,10.15,5.31.53-.57,2.87-2.35-2.06-8.9-4.93-6.56-13.56-11.25-13.56-11.25,0,0,3.3,1.34,8.76,1.63,5.46.29,10.67-2.25,11.1-4.36.43-2.11-2.44-3.97-8.28-4.16Z"/>
        <path class="cls-4" d="M81.51,293.05s-3.13,3.57-1.6,17.61,7.79,4.98,8.36-.64c.57-5.62.19-14.8-1.08-18.06l-5.68,1.08Z"/>
        <path class="cls-4" d="M77.68,291.2s-22.84,11.29-14.74,17.17c8.1,5.87,18.12-15.44,18.12-15.44l-3.38-1.72Z"/>
        <path class="cls-4" d="M77.11,290.34l-1.83-4.91s-4.53-1.44-15.12-1.89c-10.59-.45-9.25,6.64-1.79,8.68,7.47,2.04,18.74-1.88,18.74-1.88Z"/>
        <path class="cls-4" d="M75.48,283.48l3.45-4.66s-1.6-5.81-9.95-15.7c-8.36-9.89-13.02,1.6-6.57,9.83,6.45,8.23,13.08,10.53,13.08,10.53Z"/>
      </g>
      <g>
        <path class="cls-2" d="M83.03,277.79l7.56,7.45s1.33.54,10.25-2.89c8.91-3.42,15.8-11.28,13.19-13.77-2.61-2.5-10.53,1.02-16.01,3.87s-10.44,6.94-10.44,6.94c0,0,3.6-3.81,6.91-11.77,3.31-7.95,1.89-14.41-1.45-15.34-3.34-.93-6.95,7.52-8.82,13.68-1.87,6.16-1.19,11.83-1.19,11.83Z"/>
        <path class="cls-2" d="M102.52,288.13c-5.34-2.36-12.03-2.68-12.03-2.68l-4.81,7.24s-.26,3.2,3.05,13.3c3.3,10.11,6.72,9.06,7.42,8.72.7-.34,3.54-1.1,1.42-9.03-2.12-7.92-8.37-15.5-8.37-15.5,0,0,2.56,2.48,7.51,4.78,4.95,2.31,10.74,1.91,11.93.11,1.19-1.79-.78-4.6-6.12-6.96Z"/>
        <path class="cls-2" d="M78.41,292.09s-4.24,2.14-8.07,15.74c-3.83,13.59,5.36,7.53,7.99,2.53,2.63-4.99,5.71-13.66,5.75-17.15l-5.67-1.12Z"/>
        <path class="cls-2" d="M75.55,288.94s-25.41,1.93-20.09,10.41c5.32,8.48,22.58-7.54,22.58-7.54l-2.49-2.86Z"/>
        <path class="cls-2" d="M75.34,287.92l.14-5.23s-3.66-3.03-13.32-7.41c-9.66-4.38-11.06,2.69-4.9,7.38,6.16,4.69,18.08,5.26,18.08,5.26Z"/>
        <path class="cls-2" d="M76.39,280.95l4.94-3.03s.69-5.98-3.36-18.28c-4.05-12.3-12.67-3.39-9.77,6.66,2.9,10.04,8.19,14.66,8.19,14.66Z"/>
      </g>
      <circle class="cls-4" cx="83.04" cy="285.43" r="8.51"/>
    </g>
    <g>
      <path class="cls-2" d="M704.32,226.66s20.91-13.07,23.01,1.03c2.11,14.1-23.04,10.33-23.04,10.33,0,0,18.76,15.98.32,21.54-18.44,5.56-8.55-20.73-8.55-20.73,0,0-9.13,23.97-20.38,8.98-11.24-14.98,15.95-15.69,15.95-15.69,0,0-27.25-1.44-19-16.27,8.25-14.83,24.12,11.69,24.12,11.69,0,0-8.88-22.77,8.91-20.25,17.79,2.52-1.34,19.38-1.34,19.38Z"/>
      <circle class="cls-2" cx="698.66" cy="232" r="8.98"/>
    </g>
    <g>
      <path class="cls-4" d="M721.93,212.54s-15.03-19.55-1.2-23.01c13.83-3.46,12.5,21.94,12.5,21.94,0,0,14.1-20.21,21.41-2.39,7.31,17.82-19.81,10.51-19.81,10.51,0,0,24.73,6.78,10.9,19.42-13.83,12.63-17.15-14.36-17.15-14.36,0,0,1.2,27.26-14.36,20.48-15.56-6.78,9.31-25.13,9.31-25.13,0,0-21.81,11.04-21.01-6.92s19.42-.53,19.42-.53Z"/>
      <circle class="cls-4" cx="727.78" cy="217.66" r="8.98"/>
    </g>
    <g>
      <g>
        <path class="cls-4" d="M713.79,423.92l9.8,4.08s1.44,0,8.42-6.51c6.99-6.51,10.43-16.37,7.08-17.71-3.35-1.34-9.38,4.88-13.4,9.57s-7.08,10.34-7.08,10.34c0,0,1.91-4.88,2.01-13.5.1-8.61-3.64-14.07-7.08-13.69-3.45.38-3.64,9.57-3.06,15.99.57,6.41,3.32,11.42,3.32,11.42Z"/>
        <path class="cls-4" d="M735.73,426.23c-5.84-.19-12.16,2.01-12.16,2.01l-1.75,8.52s.96,3.06,7.8,11.2c6.84,8.14,9.62,5.89,10.15,5.31.53-.57,2.87-2.35-2.06-8.9-4.93-6.56-13.56-11.25-13.56-11.25,0,0,3.3,1.34,8.76,1.63,5.46.29,10.67-2.25,11.1-4.36.43-2.11-2.44-3.97-8.28-4.16Z"/>
        <path class="cls-4" d="M714.85,438.91s-3.13,3.57-1.6,17.61c1.53,14.04,7.79,4.98,8.36-.64.57-5.62.19-14.8-1.08-18.06l-5.68,1.08Z"/>
        <path class="cls-4" d="M711.02,437.06s-22.84,11.29-14.74,17.17c8.1,5.87,18.12-15.44,18.12-15.44l-3.38-1.72Z"/>
        <path class="cls-4" d="M710.45,436.2l-1.83-4.91s-4.53-1.44-15.12-1.89c-10.59-.45-9.25,6.64-1.79,8.68,7.47,2.04,18.74-1.88,18.74-1.88Z"/>
        <path class="cls-4" d="M708.81,429.34l3.45-4.66s-1.6-5.81-9.95-15.7c-8.36-9.89-13.02,1.6-6.57,9.83,6.45,8.23,13.08,10.53,13.08,10.53Z"/>
      </g>
      <g>
        <path class="cls-2" d="M716.37,423.65l7.56,7.45s1.33.54,10.25-2.89,15.8-11.28,13.19-13.77c-2.61-2.5-10.53,1.02-16.01,3.87-5.48,2.85-10.44,6.94-10.44,6.94,0,0,3.6-3.81,6.91-11.77,3.31-7.95,1.89-14.41-1.45-15.34-3.34-.93-6.95,7.52-8.82,13.68-1.87,6.16-1.19,11.83-1.19,11.83Z"/>
        <path class="cls-2" d="M735.86,433.99c-5.34-2.36-12.03-2.68-12.03-2.68l-4.81,7.24s-.26,3.2,3.05,13.3c3.3,10.11,6.72,9.06,7.42,8.72.7-.34,3.54-1.1,1.42-9.03-2.12-7.92-8.37-15.5-8.37-15.5,0,0,2.56,2.48,7.51,4.78,4.95,2.31,10.74,1.91,11.93.11,1.19-1.79-.78-4.6-6.12-6.96Z"/>
        <path class="cls-2" d="M711.75,437.95s-4.24,2.14-8.07,15.74c-3.83,13.59,5.36,7.53,7.99,2.53,2.63-4.99,5.71-13.66,5.75-17.15l-5.67-1.12Z"/>
        <path class="cls-2" d="M708.89,434.8s-25.41,1.93-20.09,10.41c5.32,8.48,22.58-7.54,22.58-7.54l-2.49-2.86Z"/>
        <path class="cls-2" d="M708.68,433.78l.14-5.23s-3.66-3.03-13.32-7.41c-9.66-4.38-11.06,2.69-4.9,7.38,6.16,4.69,18.08,5.26,18.08,5.26Z"/>
        <path class="cls-2" d="M709.73,426.81l4.94-3.03s.69-5.98-3.36-18.28c-4.05-12.3-12.67-3.39-9.77,6.66,2.9,10.04,8.19,14.66,8.19,14.66Z"/>
      </g>
      <circle class="cls-4" cx="716.38" cy="431.29" r="8.51"/>
    </g>
    <g>
      <g>
        <path class="cls-4" d="M681.88,493.34l9.8,4.08s1.44,0,8.42-6.51c6.99-6.51,10.43-16.37,7.08-17.71-3.35-1.34-9.38,4.88-13.4,9.57s-7.08,10.34-7.08,10.34c0,0,1.91-4.88,2.01-13.5.1-8.61-3.64-14.07-7.08-13.69-3.45.38-3.64,9.57-3.06,15.99.57,6.41,3.32,11.42,3.32,11.42Z"/>
        <path class="cls-4" d="M703.82,495.64c-5.84-.19-12.16,2.01-12.16,2.01l-1.75,8.52s.96,3.06,7.8,11.2c6.84,8.14,9.62,5.89,10.15,5.31.53-.57,2.87-2.35-2.06-8.9-4.93-6.56-13.56-11.25-13.56-11.25,0,0,3.3,1.34,8.76,1.63,5.46.29,10.67-2.25,11.1-4.36.43-2.11-2.44-3.97-8.28-4.16Z"/>
        <path class="cls-4" d="M682.94,508.33s-3.13,3.57-1.6,17.61c1.53,14.04,7.79,4.98,8.36-.64.57-5.62.19-14.8-1.08-18.06l-5.68,1.08Z"/>
        <path class="cls-4" d="M679.11,506.48s-22.84,11.29-14.74,17.17c8.1,5.87,18.12-15.44,18.12-15.44l-3.38-1.72Z"/>
        <path class="cls-4" d="M678.53,505.62l-1.83-4.91s-4.53-1.44-15.12-1.89c-10.59-.45-9.25,6.64-1.79,8.68,7.47,2.04,18.74-1.88,18.74-1.88Z"/>
        <path class="cls-4" d="M676.9,498.76l3.45-4.66s-1.6-5.81-9.95-15.7c-8.36-9.89-13.02,1.6-6.57,9.83,6.45,8.23,13.08,10.53,13.08,10.53Z"/>
      </g>
      <g>
        <path class="cls-2" d="M684.45,493.06l7.56,7.45s1.33.54,10.25-2.89,15.8-11.28,13.19-13.77c-2.61-2.5-10.53,1.02-16.01,3.87-5.48,2.85-10.44,6.94-10.44,6.94,0,0,3.6-3.81,6.91-11.77,3.31-7.95,1.89-14.41-1.45-15.34-3.34-.93-6.95,7.52-8.82,13.68-1.87,6.16-1.19,11.83-1.19,11.83Z"/>
        <path class="cls-2" d="M703.94,503.41c-5.34-2.36-12.03-2.68-12.03-2.68l-4.81,7.24s-.26,3.2,3.05,13.3c3.3,10.11,6.72,9.06,7.42,8.72.7-.34,3.54-1.1,1.42-9.03-2.12-7.92-8.37-15.5-8.37-15.5,0,0,2.56,2.48,7.51,4.78,4.95,2.31,10.74,1.91,11.93.11,1.19-1.79-.78-4.6-6.12-6.96Z"/>
        <path class="cls-2" d="M679.83,507.36s-4.24,2.14-8.07,15.74c-3.83,13.59,5.36,7.53,7.99,2.53,2.63-4.99,5.71-13.66,5.75-17.15l-5.67-1.12Z"/>
        <path class="cls-2" d="M676.97,504.21s-25.41,1.93-20.09,10.41c5.32,8.48,22.58-7.54,22.58-7.54l-2.49-2.86Z"/>
        <path class="cls-2" d="M676.76,503.2l.14-5.23s-3.66-3.03-13.32-7.41c-9.66-4.38-11.06,2.69-4.9,7.38,6.16,4.69,18.08,5.26,18.08,5.26Z"/>
        <path class="cls-2" d="M677.81,496.23l4.94-3.03s.69-5.98-3.36-18.28c-4.05-12.3-12.67-3.39-9.77,6.66,2.9,10.04,8.19,14.66,8.19,14.66Z"/>
      </g>
      <circle class="cls-4" cx="684.46" cy="500.71" r="8.51"/>
    </g>
    <g>
      <path class="cls-3" d="M753.94,390.07s-15.03-19.55-1.2-23.01c13.83-3.46,12.5,21.94,12.5,21.94,0,0,14.1-20.21,21.41-2.39,7.31,17.82-19.81,10.51-19.81,10.51,0,0,24.73,6.78,10.9,19.42s-17.15-14.36-17.15-14.36c0,0,1.2,27.26-14.36,20.48-15.56-6.78,9.31-25.13,9.31-25.13,0,0-21.81,11.04-21.01-6.92s19.42-.53,19.42-.53Z"/>
      <circle class="cls-3" cx="759.79" cy="395.19" r="8.98"/>
    </g>
    <g>
      <path class="cls-2" d="M761.86,420.15s20.91-13.07,23.01,1.03c2.11,14.1-23.04,10.33-23.04,10.33,0,0,18.76,15.98.32,21.54-18.44,5.56-8.55-20.73-8.55-20.73,0,0-9.13,23.97-20.38,8.98-11.24-14.98,15.95-15.69,15.95-15.69,0,0-27.25-1.44-19-16.27,8.25-14.83,24.12,11.69,24.12,11.69,0,0-8.88-22.77,8.91-20.25,17.79,2.52-1.34,19.38-1.34,19.38Z"/>
      <circle class="cls-2" cx="756.2" cy="425.48" r="8.98"/>
    </g>
    <g>
      <path class="cls-2" d="M1016.34,439.04s9.99-22.54,19.64-12.04c9.64,10.5-13.3,21.46-13.3,21.46,0,0,24.49,2.73,12.33,17.67s-18.7-12.39-18.7-12.39c0,0,5.86,24.97-11.85,18.86-17.71-6.11,4.42-21.93,4.42-21.93,0,0-23.38,14.08-24.85-2.83-1.47-16.91,26.53-3.83,26.53-3.83,0,0-20.12-13.89-3.96-21.76,16.15-7.88,9.74,16.8,9.74,16.8Z"/>
      <circle class="cls-2" cx="1014.64" cy="446.63" r="8.98"/>
    </g>
    <g>
      <path class="cls-2" d="M804.94,205.17s9.99-22.54,19.64-12.04c9.64,10.5-13.3,21.46-13.3,21.46,0,0,24.49,2.73,12.33,17.67-12.16,14.94-18.7-12.39-18.7-12.39,0,0,5.86,24.97-11.85,18.86-17.71-6.11,4.42-21.93,4.42-21.93,0,0-23.38,14.08-24.85-2.83-1.47-16.91,26.53-3.83,26.53-3.83,0,0-20.12-13.89-3.96-21.76,16.15-7.88,9.74,16.8,9.74,16.8Z"/>
      <circle class="cls-2" cx="803.24" cy="212.75" r="8.98"/>
    </g>
    <g>
      <path class="cls-4" d="M19.69,520.76s-15.03-19.55-1.2-23.01,12.5,21.94,12.5,21.94c0,0,14.1-20.21,21.41-2.39,7.31,17.82-19.81,10.51-19.81,10.51,0,0,24.73,6.78,10.9,19.42-13.83,12.63-17.15-14.36-17.15-14.36,0,0,1.2,27.26-14.36,20.48-15.56-6.78,9.31-25.13,9.31-25.13,0,0-21.81,11.04-21.01-6.92s19.42-.53,19.42-.53Z"/>
      <circle class="cls-4" cx="25.54" cy="525.88" r="8.98"/>
    </g>
    <g>
      <path class="cls-2" d="M459.32,519.97s31.32-19.59,34.48,1.54c3.16,21.12-34.53,15.47-34.53,15.47,0,0,28.11,23.94.48,32.27-27.63,8.33-12.81-31.06-12.81-31.06,0,0-13.69,35.91-30.53,13.46-16.84-22.45,23.89-23.51,23.89-23.51,0,0-40.83-2.15-28.47-24.37,12.36-22.22,36.14,17.51,36.14,17.51,0,0-13.31-34.12,13.35-30.33s-2.01,29.03-2.01,29.03Z"/>
      <circle class="cls-2" cx="450.84" cy="527.95" r="13.45"/>
    </g>
    <g>
      <path class="cls-2" d="M342.08,453.52s14.97-33.77,29.42-18.04c14.45,15.73-19.93,32.16-19.93,32.16,0,0,36.69,4.09,18.47,26.47s-28.01-18.56-28.01-18.56c0,0,8.78,37.41-17.75,28.25-26.53-9.16,6.62-32.86,6.62-32.86,0,0-35.02,21.09-37.23-4.25-2.21-25.33,39.74-5.74,39.74-5.74,0,0-30.14-20.8-5.94-32.6,24.2-11.8,14.6,25.17,14.6,25.17Z"/>
      <circle class="cls-2" cx="339.53" cy="464.88" r="13.45"/>
    </g>
    <g>
      <path class="cls-2" d="M201.65,417.77s14.97-33.77,29.42-18.04c14.45,15.73-19.93,32.16-19.93,32.16,0,0,36.69,4.09,18.47,26.47s-28.01-18.56-28.01-18.56c0,0,8.78,37.41-17.75,28.25-26.53-9.16,6.62-32.86,6.62-32.86,0,0-35.02,21.09-37.23-4.25-2.21-25.33,39.74-5.74,39.74-5.74,0,0-30.14-20.8-5.94-32.6,24.2-11.8,14.6,25.17,14.6,25.17Z"/>
      <circle class="cls-2" cx="199.1" cy="429.14" r="13.45"/>
    </g>
    <g>
      <path class="cls-2" d="M949.23,218.62s14.97-33.77,29.42-18.04c14.45,15.73-19.93,32.16-19.93,32.16,0,0,36.69,4.09,18.47,26.47s-28.01-18.56-28.01-18.56c0,0,8.78,37.41-17.75,28.25-26.53-9.16,6.62-32.86,6.62-32.86,0,0-35.02,21.09-37.23-4.25s39.74-5.74,39.74-5.74c0,0-30.14-20.8-5.94-32.6,24.2-11.8,14.6,25.17,14.6,25.17Z"/>
      <circle class="cls-2" cx="946.68" cy="229.99" r="13.45"/>
    </g>
    <g>
      <path class="cls-4" d="M380.31,494.02s-22.51-29.29-1.79-34.47,18.73,32.87,18.73,32.87c0,0,21.12-30.28,32.08-3.59,10.96,26.7-29.69,15.74-29.69,15.74,0,0,37.06,10.16,16.34,29.09-20.72,18.93-25.7-21.52-25.7-21.52,0,0,1.79,40.84-21.52,30.68-23.31-10.16,13.95-37.66,13.95-37.66,0,0-32.67,16.54-31.48-10.36,1.2-26.9,29.09-.8,29.09-.8Z"/>
      <circle class="cls-4" cx="389.08" cy="501.69" r="13.45"/>
    </g>
    <g>
      <path class="cls-3" d="M441.03,476.77s28.78-23.15,34.42-2.55c5.64,20.6-32.45,19.45-32.45,19.45,0,0,30.74,20.45,4.29,31.99-26.45,11.54-16.39-29.33-16.39-29.33,0,0-9.34,37.27-28.72,16.97-19.38-20.3,20.95-26.17,20.95-26.17,0,0-40.79,2.69-31.15-20.84,9.64-23.53,37.95,13.11,37.95,13.11,0,0-17.25-32.3,9.66-31.7,26.92.6,1.44,29.06,1.44,29.06Z"/>
      <circle class="cls-3" cx="433.56" cy="485.7" r="13.45"/>
    </g>
    <g>
      <path class="cls-3" d="M430.62,432.66s-22.51-29.29-1.79-34.47,18.73,32.87,18.73,32.87c0,0,21.12-30.28,32.08-3.59s-29.69,15.74-29.69,15.74c0,0,37.06,10.16,16.34,29.09-20.72,18.93-25.7-21.52-25.7-21.52,0,0,1.79,40.84-21.52,30.68-23.31-10.16,13.95-37.66,13.95-37.66,0,0-32.67,16.54-31.48-10.36,1.2-26.9,29.09-.8,29.09-.8Z"/>
      <circle class="cls-3" cx="439.38" cy="440.33" r="13.45"/>
    </g>
    <g>
      <g>
        <path class="cls-4" d="M382.28,430.64l14.68,6.12s2.15,0,12.62-9.75c10.47-9.75,15.63-24.52,10.61-26.53-5.02-2.01-14.05,7.31-20.08,14.34-6.02,7.03-10.61,15.49-10.61,15.49,0,0,2.87-7.31,3.01-20.22.14-12.91-5.45-21.08-10.61-20.51-5.16.57-5.45,14.34-4.59,23.95.86,9.61,4.97,17.11,4.97,17.11Z"/>
        <path class="cls-4" d="M415.15,434.1c-8.75-.29-18.21,3.01-18.21,3.01l-2.63,12.76s1.43,4.59,11.69,16.78c10.25,12.19,14.41,8.82,15.2,7.96.79-.86,4.3-3.51-3.08-13.34-7.39-9.82-20.32-16.85-20.32-16.85,0,0,4.95,2.01,13.12,2.44,8.17.43,15.99-3.37,16.64-6.53.65-3.15-3.66-5.95-12.4-6.24Z"/>
        <path class="cls-4" d="M383.87,453.1s-4.68,5.35-2.39,26.39c2.29,21.03,11.66,7.46,12.52-.96.86-8.41.29-22.18-1.63-27.06l-8.51,1.63Z"/>
        <path class="cls-4" d="M378.13,450.32s-34.23,16.92-22.08,25.72c12.14,8.8,27.15-23.14,27.15-23.14l-5.07-2.58Z"/>
        <path class="cls-4" d="M377.27,449.03l-2.74-7.35s-6.79-2.16-22.66-2.83c-15.87-.67-13.86,9.94-2.68,13,11.19,3.06,28.07-2.82,28.07-2.82Z"/>
        <path class="cls-4" d="M374.82,438.76l5.16-6.98s-2.39-8.7-14.91-23.52c-12.52-14.82-19.5,2.39-9.85,14.72,9.66,12.33,19.6,15.77,19.6,15.77Z"/>
      </g>
      <g>
        <path class="cls-2" d="M386.14,430.23l11.32,11.16s1.99.8,15.35-4.32c13.36-5.13,23.67-16.9,19.76-20.64-3.9-3.74-15.77,1.53-23.98,5.79-8.21,4.26-15.63,10.39-15.63,10.39,0,0,5.4-5.71,10.36-17.63,4.96-11.92,2.83-21.59-2.17-22.99-5-1.4-10.42,11.26-13.21,20.49-2.8,9.23-1.79,17.73-1.79,17.73Z"/>
        <path class="cls-2" d="M415.34,445.73c-8.01-3.54-18.02-4.02-18.02-4.02l-7.21,10.85s-.39,4.79,4.56,19.93c4.95,15.14,10.07,13.57,11.12,13.07,1.05-.5,5.3-1.65,2.13-13.52-3.18-11.87-12.54-23.23-12.54-23.23,0,0,3.84,3.71,11.26,7.17,7.42,3.46,16.09,2.85,17.87.17,1.78-2.68-1.17-6.89-9.17-10.42Z"/>
        <path class="cls-2" d="M379.22,451.65s-6.35,3.21-12.09,23.58,8.03,11.28,11.97,3.8c3.94-7.48,8.56-20.46,8.61-25.7l-8.5-1.68Z"/>
        <path class="cls-2" d="M374.93,446.93s-38.07,2.89-30.1,15.59c7.97,12.7,33.83-11.3,33.83-11.3l-3.73-4.29Z"/>
        <path class="cls-2" d="M374.62,445.42l.21-7.84s-5.49-4.54-19.95-11.1c-14.47-6.56-16.58,4.04-7.35,11.06,9.23,7.02,27.09,7.88,27.09,7.88Z"/>
        <path class="cls-2" d="M376.19,434.97l7.4-4.54s1.04-8.96-5.04-27.39c-6.07-18.43-18.98-5.08-14.64,9.97,4.34,15.05,12.28,21.96,12.28,21.96Z"/>
      </g>
      <circle class="cls-4" cx="386.15" cy="441.68" r="12.75"/>
    </g>
    <g>
      <path class="cls-2" d="M830.6,370.4s36.22-22.65,39.87,1.78c3.65,24.42-39.92,17.89-39.92,17.89,0,0,32.5,27.68.55,37.32-31.95,9.64-14.81-35.92-14.81-35.92,0,0-15.82,41.52-35.3,15.56-19.47-25.96,27.63-27.18,27.63-27.18,0,0-47.21-2.49-32.91-28.18,14.29-25.7,41.78,20.25,41.78,20.25,0,0-15.39-39.45,15.43-35.08,30.82,4.37-2.32,33.57-2.32,33.57Z"/>
      <circle class="cls-2" cx="820.8" cy="379.63" r="15.55"/>
    </g>
    <g>
      <g>
        <path class="cls-2" d="M311.63,189.05l17.65,7.36s2.59,0,15.18-11.73c12.59-11.73,18.8-29.5,12.77-31.91-6.04-2.42-16.91,8.8-24.15,17.25-7.25,8.45-12.77,18.63-12.77,18.63,0,0,3.45-8.8,3.62-24.32.17-15.53-6.56-25.36-12.77-24.67-6.21.69-6.56,17.25-5.52,28.81,1.04,11.56,5.98,20.59,5.98,20.59Z"/>
        <path class="cls-2" d="M351.18,193.2c-10.52-.35-21.91,3.62-21.91,3.62l-3.16,15.35s1.73,5.52,14.06,20.18c12.33,14.66,17.34,10.61,18.29,9.57.95-1.04,5.18-4.23-3.71-16.04-8.88-11.82-24.44-20.27-24.44-20.27,0,0,5.95,2.42,15.78,2.93,9.83.52,19.24-4.05,20.01-7.85.78-3.8-4.4-7.16-14.92-7.5Z"/>
        <path class="cls-2" d="M313.55,216.06s-5.64,6.44-2.88,31.74c2.76,25.3,14.03,8.97,15.07-1.15,1.04-10.12.35-26.68-1.96-32.55l-10.24,1.96Z"/>
        <path class="cls-2" d="M306.64,212.72s-41.17,20.36-26.57,30.94c14.61,10.58,32.66-27.83,32.66-27.83l-6.1-3.11Z"/>
        <path class="cls-2" d="M305.61,211.17l-3.29-8.84s-8.17-2.6-27.26-3.41c-19.09-.81-16.68,11.96-3.22,15.64,13.46,3.68,33.77-3.39,33.77-3.39Z"/>
        <path class="cls-2" d="M302.66,198.81l6.21-8.4s-2.88-10.47-17.94-28.29c-15.07-17.83-23.46,2.88-11.85,17.71,11.62,14.84,23.58,18.98,23.58,18.98Z"/>
      </g>
      <g>
        <path class="cls-2" d="M316.28,188.55l13.62,13.43s2.4.97,18.47-5.2c16.07-6.17,28.47-20.33,23.78-24.82-4.7-4.5-18.97,1.84-28.85,6.97-9.88,5.13-18.81,12.5-18.81,12.5,0,0,6.49-6.87,12.46-21.2,5.97-14.33,3.4-25.97-2.61-27.65-6.02-1.68-12.53,13.55-15.89,24.65-3.36,11.11-2.15,21.33-2.15,21.33Z"/>
        <path class="cls-2" d="M351.4,207.2c-9.63-4.26-21.67-4.83-21.67-4.83l-8.68,13.06s-.46,5.76,5.49,23.98c5.96,18.21,12.11,16.32,13.38,15.72,1.27-.61,6.38-1.98,2.56-16.27-3.82-14.28-15.08-27.94-15.08-27.94,0,0,4.62,4.47,13.54,8.62,8.93,4.16,19.36,3.43,21.49.2,2.14-3.23-1.4-8.28-11.03-12.54Z"/>
        <path class="cls-2" d="M307.95,214.32s-7.64,3.87-14.54,28.36c-6.9,24.5,9.66,13.57,14.4,4.57,4.75-9,10.3-24.62,10.36-30.92l-10.22-2.02Z"/>
        <path class="cls-2" d="M302.8,208.64s-45.8,3.48-36.21,18.76c9.59,15.28,40.7-13.6,40.7-13.6l-4.49-5.16Z"/>
        <path class="cls-2" d="M302.42,206.82l.25-9.43s-6.6-5.47-24-13.35c-17.4-7.89-19.94,4.86-8.84,13.3,11.1,8.45,32.59,9.48,32.59,9.48Z"/>
        <path class="cls-2" d="M304.31,194.25l8.9-5.46s1.25-10.78-6.06-32.95c-7.31-22.17-22.83-6.11-17.61,12,5.22,18.1,14.77,26.42,14.77,26.42Z"/>
      </g>
      <circle class="cls-4" cx="316.29" cy="202.33" r="15.34"/>
    </g>
    <g>
      <g>
        <path class="cls-2" d="M1089.85,309.56l17.65,7.36s2.59,0,15.18-11.73c12.59-11.73,18.8-29.5,12.77-31.91-6.04-2.42-16.91,8.8-24.15,17.25-7.25,8.45-12.77,18.63-12.77,18.63,0,0,3.45-8.8,3.62-24.32.17-15.53-6.56-25.36-12.77-24.67-6.21.69-6.56,17.25-5.52,28.81,1.04,11.56,5.98,20.59,5.98,20.59Z"/>
        <path class="cls-2" d="M1129.39,313.71c-10.52-.35-21.91,3.62-21.91,3.62l-3.16,15.35s1.73,5.52,14.06,20.18c12.33,14.66,17.34,10.61,18.29,9.57.95-1.04,5.18-4.23-3.71-16.04-8.88-11.82-24.44-20.27-24.44-20.27,0,0,5.95,2.42,15.78,2.93,9.83.52,19.24-4.05,20.01-7.85.78-3.8-4.4-7.16-14.92-7.5Z"/>
        <path class="cls-2" d="M1091.76,336.57s-5.64,6.44-2.88,31.74c2.76,25.3,14.03,8.97,15.07-1.15,1.04-10.12.35-26.68-1.96-32.55l-10.24,1.96Z"/>
        <path class="cls-2" d="M1084.86,333.23s-41.17,20.36-26.57,30.94c14.61,10.58,32.66-27.83,32.66-27.83l-6.1-3.11Z"/>
        <path class="cls-2" d="M1083.82,331.68l-3.29-8.84s-8.17-2.6-27.26-3.41c-19.09-.81-16.68,11.96-3.22,15.64,13.46,3.68,33.77-3.39,33.77-3.39Z"/>
        <path class="cls-2" d="M1080.88,319.32l6.21-8.4s-2.88-10.47-17.94-28.29c-15.07-17.83-23.46,2.88-11.85,17.71,11.62,14.84,23.58,18.98,23.58,18.98Z"/>
      </g>
      <g>
        <path class="cls-2" d="M1094.49,309.06l13.62,13.43s2.4.97,18.47-5.2c16.07-6.17,28.47-20.33,23.78-24.82-4.7-4.5-18.97,1.84-28.85,6.97-9.88,5.13-18.81,12.5-18.81,12.5,0,0,6.49-6.87,12.46-21.2,5.97-14.33,3.4-25.97-2.61-27.65-6.02-1.68-12.53,13.55-15.89,24.65-3.36,11.11-2.15,21.33-2.15,21.33Z"/>
        <path class="cls-2" d="M1129.62,327.71c-9.63-4.26-21.67-4.83-21.67-4.83l-8.68,13.06s-.46,5.76,5.49,23.98c5.96,18.21,12.11,16.32,13.38,15.72,1.27-.61,6.38-1.98,2.56-16.27-3.82-14.28-15.08-27.94-15.08-27.94,0,0,4.62,4.47,13.54,8.62,8.93,4.16,19.36,3.43,21.49.2,2.14-3.23-1.4-8.28-11.03-12.54Z"/>
        <path class="cls-2" d="M1086.16,334.83s-7.64,3.87-14.54,28.36c-6.9,24.5,9.66,13.57,14.4,4.57,4.75-9,10.3-24.62,10.36-30.92l-10.22-2.02Z"/>
        <path class="cls-2" d="M1081.01,329.16s-45.8,3.48-36.21,18.76c9.59,15.28,40.7-13.6,40.7-13.6l-4.49-5.16Z"/>
        <path class="cls-2" d="M1080.63,327.33l.25-9.43s-6.6-5.47-24-13.35c-17.4-7.89-19.94,4.86-8.84,13.3,11.1,8.45,32.59,9.48,32.59,9.48Z"/>
        <path class="cls-2" d="M1082.52,314.76l8.9-5.46s1.25-10.78-6.06-32.95c-7.31-22.17-22.83-6.11-17.61,12,5.22,18.1,14.77,26.42,14.77,26.42Z"/>
      </g>
      <circle class="cls-4" cx="1094.5" cy="322.84" r="15.34"/>
    </g>
    <g>
      <path class="cls-2" d="M242.3,237.3s37.68-23.56,41.48,1.85c3.8,25.41-41.53,18.61-41.53,18.61,0,0,33.81,28.8.58,38.82-33.24,10.03-15.4-37.37-15.4-37.37,0,0-16.46,43.19-36.72,16.19-20.26-27,28.74-28.28,28.74-28.28,0,0-49.11-2.59-34.24-29.32,14.87-26.73,43.47,21.06,43.47,21.06,0,0-16.01-41.04,16.05-36.49,32.07,4.55-2.42,34.92-2.42,34.92Z"/>
      <circle class="cls-2" cx="232.09" cy="246.91" r="16.18"/>
    </g>
  </g>
</svg>
