<?xml version="1.0" encoding="UTF-8"?>
<svg id="_圖層_2" data-name="圖層 2" xmlns="http://www.w3.org/2000/svg" viewBox="0 0 40.24 43.69">
  <defs>
    <style>
      .cls-1 {
        fill: #ee8736;
      }

      .cls-1, .cls-2 {
        stroke: #000;
        stroke-miterlimit: 10;
        stroke-width: .5px;
      }

      .cls-2 {
        fill: #1f263d;
      }
    </style>
  </defs>
  <g id="_圖層_2-2" data-name="圖層 2">
    <g>
      <g>
        <path class="cls-1" d="M18.14,17.8l6.27,2.61s.92,0,5.39-4.17,6.68-10.48,4.53-11.33c-2.14-.86-6,3.12-8.58,6.13s-4.53,6.62-4.53,6.62c0,0,1.23-3.12,1.29-8.64C22.57,3.51,20.19.02,17.98.26c-2.21.25-2.33,6.13-1.96,10.23.37,4.1,2.12,7.31,2.12,7.31Z"/>
        <path class="cls-1" d="M32.19,19.28c-3.74-.12-7.78,1.29-7.78,1.29l-1.12,5.45s.61,1.96,4.99,7.17,6.16,3.77,6.49,3.4c.34-.37,1.84-1.5-1.32-5.7s-8.68-7.2-8.68-7.2c0,0,2.11.86,5.61,1.04,3.49.18,6.83-1.44,7.11-2.79.28-1.35-1.56-2.54-5.3-2.66Z"/>
        <path class="cls-1" d="M18.82,27.39s-2,2.29-1.02,11.27,4.98,3.19,5.35-.41c.37-3.59.12-9.47-.69-11.56l-3.63.69Z"/>
        <path class="cls-1" d="M16.37,26.21s-14.62,7.23-9.43,10.99c5.19,3.76,11.6-9.88,11.6-9.88l-2.16-1.1Z"/>
        <path class="cls-1" d="M16,25.66l-1.17-3.14s-2.9-.92-9.68-1.21c-6.78-.29-5.92,4.25-1.14,5.55,4.78,1.31,11.99-1.2,11.99-1.2Z"/>
        <path class="cls-1" d="M14.96,21.27l2.21-2.98s-1.02-3.72-6.37-10.05c-5.35-6.33-8.33,1.02-4.21,6.29,4.12,5.27,8.37,6.74,8.37,6.74Z"/>
      </g>
      <g>
        <path class="cls-1" d="M19.79,17.63l4.84,4.77s.85.34,6.56-1.85c5.71-2.19,10.11-7.22,8.44-8.81-1.67-1.6-6.74.65-10.24,2.47s-6.68,4.44-6.68,4.44c0,0,2.3-2.44,4.42-7.53,2.12-5.09,1.21-9.22-.93-9.82-2.14-.6-4.45,4.81-5.64,8.75-1.19,3.94-.76,7.57-.76,7.57Z"/>
        <path class="cls-1" d="M32.27,24.25c-3.42-1.51-7.7-1.72-7.7-1.72l-3.08,4.64s-.17,2.05,1.95,8.51,4.3,5.8,4.75,5.58c.45-.21,2.27-.7.91-5.78s-5.36-9.92-5.36-9.92c0,0,1.64,1.59,4.81,3.06,3.17,1.48,6.87,1.22,7.63.07.76-1.15-.5-2.94-3.92-4.45Z"/>
        <path class="cls-1" d="M16.84,26.78s-2.71,1.37-5.16,10.07,3.43,4.82,5.11,1.62c1.68-3.2,3.66-8.74,3.68-10.98l-3.63-.72Z"/>
        <path class="cls-1" d="M15.01,24.76s-16.26,1.24-12.86,6.66c3.4,5.42,14.45-4.83,14.45-4.83l-1.6-1.83Z"/>
        <path class="cls-1" d="M14.87,24.11l.09-3.35s-2.34-1.94-8.52-4.74c-6.18-2.8-7.08,1.72-3.14,4.72,3.94,3,11.57,3.37,11.57,3.37Z"/>
        <path class="cls-1" d="M15.54,19.65l3.16-1.94s.44-3.83-2.15-11.7c-2.59-7.87-8.11-2.17-6.25,4.26,1.86,6.43,5.24,9.38,5.24,9.38Z"/>
      </g>
      <circle class="cls-2" cx="19.8" cy="22.52" r="5.45"/>
    </g>
  </g>
</svg>