<?xml version="1.0" encoding="UTF-8"?>
<svg id="_圖層_2" data-name="圖層 2" xmlns="http://www.w3.org/2000/svg" viewBox="0 0 602.19 295.61">
  <defs>
    <style>
      .cls-1 {
        fill: #db5f4b;
        stroke: #000;
        stroke-miterlimit: 10;
      }
    </style>
  </defs>
  <g id="_圖層_2-2" data-name="圖層 2">
    <path class="cls-1" d="M599.04,69.5c-.15-2.35-1.8-5.31-2.92-7.33-.09-3.25-8.9-11.24-11.68-13.41-12.82-10.04-11.83-7.95-25.65-15.28-1.36-.72-3.94-1.83-5.18-1.44-.19-.32-1.83-1.91-2.53-2.12l-17.26-5.17c-.07-.81-1.92-1.22-3.02-1.53-2.6-.75-5.47-1.49-8.11-1.94-.46-1.34-2.62-1.71-4.57-2.16l-8.87-2.04-9.04-1.93-9.2-1.82-7.55-1.56c-5.35-1.1-10.72-.99-15.95-1.08-3.3-4.61-3.86-.11-15.3-4.01-5.45-1.86-10.44,1.07-17.15-2.12-4.77-.34-11.85.51-16.55-.63-2.7-.66-4.77-1.51-7.28-1.48l-31.22.45-.76-.68-.05-.78c-.99-.33-3.29-.93-4.67-.93l-45.54.12c-.46.62-2.46,1.82-3.46,1.81l-34.69-.06-3.61,2c-7.32.14-14.32-.07-21.54.57-1.66.15-4.5,1.57-6.49,1.42-4.43-.33-7.76.47-11.88,1.25-3.54.67-7.58.62-10.99.94-1.5.14-3.2.5-4.63.84-9.06,2.13-10.98-.86-15.32,2.75l-9.07-.03c.07-.13-1.38-1.2-1.51-.73l-.52,1.84-8.79.93-11.88,2.16-9.09,1.7-8.3,1.58c-4.07.78-8.4,2.17-11.93,3.56l-6.19-.05c-.92,0-2.92,2-2.78,2.54l-2.67.12c-1.85-.04-4.01.27-6.08.81l-7.29,1.92-6.37,1.85-11.89,3.04-18.32,6.35c-2.87,1-6.66,1.68-9.8,2.96l-7.97,3.24-8.84,3.6-24.38,11.89-2.63,3.64c-3.6-1.89-14.25,8.13-18.26,10.77-2.95,1.94-6.92,6.74-9.17,9.01l-1.87,1.89-5.3,7.3c-.72.99-1.17,2.33-1.22,3.61-2.35.56-1.57,3.72-2.33,5.54-2.51,6.02-1.25,9.5.03,13.91.76,2.62,1.36,4.82,2.57,7.12.98,1.86,1.97,3.39,3.63,5.5l2.9,4.38c.28.43,1.26.85,1.73,1.09.42,1.17,2.03,1.72,2.86,2.35,2.73,2.11,4.83,4.99,8.06,5.58,1.58,1.93,3.66,3.55,6.22,4.78,9.42,4.5.85,3.69,14.66,6.45,1.79,3.66,6.75,2.8,9.87,4.27,2.91,1.38,5.38,4.12,8.93,3.55l4.21,1.92c1.96.9,4.5,1.41,6.79,2.04l14.3,3.91c1.97.54,4.19.9,5.97,1.14,3.12.88,6.24,1.58,9.76,2.31l9.21,1.93c2.61.55,4.95.89,7.25,1.05,2.47.17,4.74,1.49,7.66,1.72l9.36.74c3.11.25,5.31,1.58,8.51,1.56,3.07-.02,5.39.68,8.5,1.31,3.98.81,10.82.35,14.72.69.95.08,3.33,1.58,4.24,1.59,6.72.08,15.37-.12,22.22.49,1.85.17,4.28,1.17,5.78,1.18l45.43.36-1.25,4.37c-.49.26-2.07,1.4-2.4,1.85l1.08,5.35-.15,7.45c-.21,10.18-3.79,7.58.11,13.42l2.59,6.62-.31,2.41-1.39,5.03-2.76,1.37c-.71.35.37,2.37.8,2.8l.17,1.62-3.2,2.15c-2.33-.6-6.16,2.21-5.2,4.13,2.49,1.6,3.8,3.71,3.75,6.59l-.12,6.57-1.88,2.64-.22,8.14c-.02.67.35,2.61.91,2.66l2.13.21,1.89.8c.23.1.68.22.98.32,5.08,1.6,11.02,3.9,16.17,2.42l6.41-.05c.16.14,1.02,1.14,1.16.78l.66-1.69,2.9-.17,12.33-.42c1.41-.05,3.29.05,4.75.1,2.19,1.09,4.58,1.67,7.32,2.19l5.47,1.03c2.32,2.88,6.15,2.7,9.78,2.45,3.99,2.14,2.88,4.93,5.55,6.53,1.66.99,5.53,1.21,7.64.36.19.26.37.22.56-.27l2.75-1.69c1.23-1.91,2.65-3.68,4.44-4.81l5.71.23c.87.04,1.15,2.94,1.09,3.38-.14,3.48.04,6.8.67,11.48l3.28-3.67c2.99-.3,7.4-1.35,9.89-3.17-.66-2.18-1.08-3.88-.32-5.29,5.17-2.63,3.67.25,12.76-3.69l6.97-3.01c.51-.22,2.5.06,2.62-.46l.47-2.11,8.69-1.78,4.72-1.03c1.48-.32,5.28-1.88,4.79-3.28l-1.98-5.64c-3.93-.02-6.37-.14-9.27-.87l6.95-6.82,3.21-2.28c.9-.64,1.65-3.33,1.28-4.41l-2.46-7.19c-5.54-3.01-1.67-7.4-2.13-10.29-.26-1.67-4.69-1.44-5.03-4.37,2.71-3.23-1.91-6.5-1.91-9.28,0-6.3-.38-17.91-5.5-22.71l-1.57-3.55-.43-1.86c-2.09-2.54-4.38-4.97-6.84-7.1.08-.52.24-1.45.24-1.94,12.53.36,8.06-1.71,16.9-1.88,3.24-.06,5.5-1.16,8.64-1.43l9.42-.83c3.28-.29,5.88-1.57,9.17-2.09l10.92-1.72,9.13-1.8,9.82-1.93c2.41-.47,5.47-1.36,8-2.02l6.65-1.75,7.91-1.85,7.51-1.99,7.28-1.94,11.96-3.37c8.01-2.26,15.65-5.41,23.51-8.3l18.87-6.93c6.47-2.38,43.93-20.87,43.93-25.59.32,0,1-.04,1.32-.07.48-.04.79-1.25.76-1.55,3.91-1.97,8.72-4.13,9.92-8.47l4.44-4.64c1.27-1.32,1.85-3.73,2.59-5.1,1.31-2.44,2.62-4.89,3.54-7.53.58-1.66,1.72-3.49,2.87-4.7v-9.78l-2.65-1.92Z"/>
    <g>
      <path d="M337.39,138.46c4.67.86,9.12,2.54,12.68,5.89.36.34.22,1.39-.13,1.63-.31.22-1.13.25-1.47-.04-4.49-3.76-10.23-5.9-16.1-5.01-4.42.67-8,3.47-10.65,6.94-.42.54-1.08.75-1.6.5-.57-.28-.72-1.15-.35-1.69,3.02-4.39,7.44-7.08,12.45-8.22h5.17Z"/>
      <path d="M344.95,182.56l-1.73-2.66-1.98.44.44,1.99c.08.38-.31,1.13-.67,1.26-.47.17-1.38-.16-1.49-.61l-.59-2.27-2.92.2.37,2.33c.1.62-.31,1.3-.96,1.4-.46.07-1.17-.45-1.26-.96l-.5-2.74c-4.95-.21-11.46-1.34-14.85-5.21-1.83-2.09-1.56-4.9.19-6.83-.58-.16-1.29-.51-1.42-.92-.12-.37.21-1.13.55-1.45,5.08-4.77,10.84-6.25,17.45-6.8.24-.59.69-1.17,1.18-1.15s.89.52,1.33,1.03c.53.22,1.95.28,2.54.15.42-.54.85-1.17,1.31-1.17.66-.01,1.05.59,1.26,1.33.29.28,1.58.5,1.97.32.47-.57.9-1.16,1.58-1.01.55.12.88.75.85,1.56l2.01.7c.52.18.85.94.64,1.55-.14.41-.96.7-1.44.57l-1.94-.51-.76,2.95c1.77.88,3.14,1.69,4.33,3.03,1.82,2.04,1.74,4.89-.13,6.87-1.34,1.42-2.93,2.3-4.78,3.17l1.1,1.9c.19.33.18,1,.02,1.31-.18.36-1.46.57-1.69.22ZM339.73,164.33l.48-2.14-2.5-.16-.25,1.99,2.27.31ZM335.03,164.02c.17-.57.23-1.07.26-1.86-4.77.22-9.39,1.33-13.22,4.25,4.31-1.6,8.29-2.6,12.96-2.39ZM343.93,165.21l.68-2.55-2.05-.31-.57,2.38,1.94.48ZM348.44,170.3c-5.92-5.49-22.1-5.39-27.67.11-1.24,1.23-1.22,2.91.02,4.12,1.34,1.3,3.04,2.23,4.92,2.81,13.54,4.18,27.85-2.3,22.73-7.04Z"/>
      <path d="M278.57,182.87c-.12.45-.86.87-1.28.8-.6-.1-1.05-.84-.9-1.42l.47-1.84-1.71-.49-.8,2.08c-.23.6-.91.92-1.66.65-1.4-.5.33-2.81.11-3.5-3.71-1.39-8.07-4.85-5.79-9.01.96-1.76,3.3-3.01,2.56-3.23-.85-.25-1.58.99-2.39.02-.51-.61-.22-1.42.41-1.84.12-.08.37-.21.35-.27l-.15-.5c-.16-.53-.1-1.3.38-1.59.59-.36,1.3.01,1.79.57.27.3,1.37-.25,1.35-.66-.03-.61.03-1.41.48-1.65.67-.36,1.19-.03,1.8.68.4.07,1.66-.36,2-.69.14-.87.22-1.55.96-1.72.65-.15,1.2.45,1.49,1.16,6.83-1.32,14.92,1.35,21.31,4.01.58.24.88,1.03.72,1.5-.21.62-.99.88-1.62.62-5.64-2.35-13.98-5.27-20.06-3.82-.05.46,0,1.05.12,1.59,6.29-.86,15.85-.22,20.53,4.49,2,2.02,2.14,4.94.23,7.07-3.56,3.96-10.68,5.08-15.8,5.1l-.28,1.59c-.11.63-.56,1.15-1.21,1.14s-1.12-.7-1.05-1.37l.15-1.42-1.89-.15-.6,2.14ZM275.4,165c.4-.18.73-.33.76-.54s0-.95-.21-.91l-1.05.19c-.24.04-.51.6-.42.83.11.26.69.54.93.43ZM297.41,170.4c-1.43-1.4-3.28-2.36-5.32-2.96-5.67-1.65-11.74-1.63-17.39.08-1.95.59-3.72,1.55-5.08,2.9-1.22,1.21-1.19,2.87.02,4.06,1.34,1.32,3.04,2.26,4.94,2.84,13.51,4.14,27.65-2.22,22.83-6.94Z"/>
      <path d="M312.42,242.89c-4.84.64-9.52-.26-13.68-2.32-4.65-2.31-7.55-6.67-7.88-11.83-.02-.31.48-1.02.82-1.05,2.5-.28,37.24-4.58,36.04-.57-2.01,6.67-7.86,14.79-15.29,15.77ZM311.76,240.77c6.33-1.03,11.12-7.15,13.32-12.9-3.72-.25-7.09-.22-10.71,0-7.12.44-14.02,1.11-21.09,1.92,1.34,8.74,10.71,11.46,18.47,10.97Z"/>
      <path d="M305.94,219.11c-.53-1.38-.41-2.92-.11-4.35.14-.64,1-.96,1.61-.73,1.47.55-.55,3.68,1.02,4.5,1.05-3.39.66-7.03-.26-10.22-2.01.04-3.6-.66-4.61-2.08-2.74-3.84.73-6.92.93-10.87.26-5.09.11-9.94.07-15.03,0-.66.47-1.28.9-1.39s1.35.38,1.35.9c.07,5.36.2,10.43-.05,15.76-.18,3.78-2.95,6.67-1.55,8.98,1.68,2.76,4.18.03,5.13,3.06,1.03,3.27,2.02,12.71-1.56,13.09-1.18.13-2.37-.31-2.88-1.63Z"/>
      <path d="M271.72,143.71c-2.85,1.09-4.87,3.07-5.96,5.61-.24.56-.85.97-1.3.89-.69-.13-1.13-.88-.88-1.57,2.32-6.27,9.4-8.52,15.65-8.67s12.05,1.61,16.78,5.42c.6.49.84,1.33.27,1.97-.4.44-1.11.3-1.76-.21-6.35-4.92-15.13-6.37-22.8-3.43Z"/>
      <path d="M297.03,244.92c-.4-.41-.2-1.42.17-1.68.33-.23,1.15-.22,1.5.12,4.01,3.98,9.38,5.9,14.75,3.58,2.53-1.09,4.58-2.64,6.59-4.6.26-.26.99-.3,1.31-.19.36.13.73,1.2.46,1.52-2.07,2.42-4.61,4.15-7.53,5.4-6.1,2.6-12.62.59-17.24-4.15Z"/>
      <path d="M321.65,208.98c-1.49,1.57-4.56-3.59-7.35-.26-.48.58-1.31.78-1.85.33-.49-.41-.41-1.36.06-1.84,1.32-1.34,2.92-2.24,4.87-1.83,1.21.25,5.81,1.97,4.27,3.59Z"/>
      <path d="M303.8,209.18c-1.15,1.78-3.56-1.75-4.58.19-.28.54-.62,1.14-1,1.25-.51.15-1.37-.26-1.4-.76-.14-1.96,1.47-3.37,3.36-3.32,1.62.04,4.56,1.2,3.62,2.64Z"/>
      <circle cx="333.84" cy="172.47" r="3.82"/>
      <circle cx="284.43" cy="172.47" r="3.82"/>
    </g>
  </g>
</svg>