<?xml version="1.0" encoding="UTF-8"?>
<svg id="_喇뒨쏛_2" data-name="喇뒨쏛 2" xmlns="http://www.w3.org/2000/svg" viewBox="0 0 225.43 47.17">
  <g id="_喇뒨쏛_2-2" data-name="喇뒨쏛 2">
    <g>
      <path d="M84.99,27.44c-2.39,1.87,2.22-1.74,3.54-2.77l11.78,1,11.08-2.33,4.19,2.2c1.91-1.06,6.23-3.46,3.14-1.74-5.41-8.38-3.42-10.33,1.79-2.72l12.18,1.42,4.33-.65,14.76-2.36,6.65,4.03,7.04,5.13,3.39-28.63,5.05,4.76-2.98,6.2-2.49,13.73.39,6.8-5.28.05-17.83.8-8.72-.32-12.19-1.29-10.75,2.46-11.9.72-7.79,3.33c-.83,7.49-1.13,10.18-1.09,9.9l-8.28-19.71Z"/>
      <path d="M2.74,32.58l-2.12,12.23L0,12.69c5.48-.06,8.94.2,15.64,1.09l-3.91,15.74,11.14,2.71c3.16.06,5.4.76,9.75,2.41l3.47-16.57-1.14-6.1,4.79-1.04-.27,5.35-1.16,30.77-7.72-6.36-11.34,1.8-9.38-1.89,1.61-14.17-8.74,6.15ZM10.07,20.2c.11-1.7-1.17-3.16-2.87-3.27s-3.16,1.17-3.27,2.87,1.17,3.16,2.87,3.27,3.16-1.17,3.27-2.87Z"/>
      <path d="M206.26,21.51l3.71,8.01-9.63,1.67-10.48,1.43,3.49-23.4c1.78-5.84,3.86-6.72,3.41.03l-.98,19.13,10.48-6.87Z"/>
      <path d="M79.95,26.03l-5.85,2.88,3.3,8.66c7.75-1.1,6.52-.54.73,1.23l-9.27-1.96,3.29-23.86,13.23-.9-7.82,2.73-3.71,5.6,6.11,5.63Z"/>
      <polygon points="220.87 16.95 225.43 28.03 215 31.57 219.22 1.98 221.24 1.75 220.87 16.95"/>
      <polygon points="52.63 30.79 51.16 42.97 43.52 41.55 43.6 23.21 52.63 30.79"/>
    </g>
  </g>
</svg>